{
  "source": "C:\\Users\\Peter\\Desktop\\stuff\\MIUN\\quantitative_research\\video_compression\\videos\\BVI-HD\\Rowing_1920x1080_30fps.mp4",
  "output": "C:\\Users\\Peter\\Desktop\\stuff\\MIUN\\quantitative_research\\video_compression\\compressed_videos\\BVI-HD\\av1\\12\\Rowing_1920x1080_30fps_av1.mkv",
  "codec": "av1",
  "ok": "Input #0, mov,mp4,m4a,3gp,3g2,mj2, from 'C:\\Users\\Peter\\Desktop\\stuff\\MIUN\\quantitative_research\\video_compression\\videos\\BVI-HD\\Rowing_1920x1080_30fps.mp4':\n  Metadata:\n    major_brand     : isom\n    minor_version   : 512\n    compatible_brands: isomiso2avc1mp41\n    encoder         : Lavf54.28.101\n  Duration: 00:00:05.00, start: 0.000000, bitrate: 259220 kb/s\n  Stream #0:0[0x1](und): Video: h264 (High 4:4:4 Predictive) (avc1 / 0x31637661), yuv420p(progressive), 1920x1080, 259216 kb/s, 30 fps, 30 tbr, 30 tbn (default)\n    Metadata:\n      handler_name    : VideoHandler\n      vendor_id       : [0][0][0][0]\n[out#0/matroska @ 00000290a41c9400] Codec AVOption b:a (set bitrate (in bits/s)) has not been used for any stream. The most likely reason is either wrong type (e.g. a video option with no video streams) or that it is a private option of some decoder which was not actually used for any stream.\nStream mapping:\n  Stream #0:0 -> #0:0 (h264 (native) -> av1 (libsvtav1))\nPress [q] to stop, [?] for help\nSvt[info]: -------------------------------------------\nSvt[info]: SVT [version]:\tSVT-AV1 Encoder Lib v3.1.0-19-g6ecfe8ec\nSvt[info]: SVT [build]  :\tGCC 15.2.0\t 64 bit\nSvt[info]: LIB Build date: Aug 17 2025 11:37:13\nSvt[info]: -------------------------------------------\nSvt[info]: Level of Parallelism: 5\nSvt[info]: Number of PPCS 93\nSvt[info]: [asm level on system : up to avx2]\nSvt[info]: [asm level selected : up to avx2]\nSvt[info]: -------------------------------------------\nSvt[info]: SVT [config]: main profile\ttier (auto)\tlevel (auto)\nSvt[info]: SVT [config]: width / height / fps numerator / fps denominator \t\t: 1920 / 1080 / 30 / 1\nSvt[info]: SVT [config]: bit-depth / color format \t\t\t\t\t: 8 / YUV420\nSvt[info]: SVT [config]: preset / tune / pred struct \t\t\t\t\t: 4 / PSNR / random access\nSvt[info]: SVT [config]: gop size / mini-gop size / key-frame type \t\t\t: 161 / 16 / key frame\nSvt[info]: SVT [config]: BRC mode / target bitrate (kbps)\t\t\t\t: VBR / 12000 \nSvt[info]: SVT [config]: AQ mode / Variance Boost \t\t\t\t\t: 2 / 0\nSvt[info]: SVT [config]: sharpness / luminance-based QP bias \t\t\t\t: 0 / 0\nSvt[info]: SVT [config]: QP scale compress strength \t\t\t\t\t: 0\nSvt[info]: -------------------------------------------\nOutput #0, matroska, to 'C:\\Users\\Peter\\Desktop\\stuff\\MIUN\\quantitative_research\\video_compression\\compressed_videos\\BVI-HD\\av1\\12\\Rowing_1920x1080_30fps_av1.mkv':\n  Metadata:\n    major_brand     : isom\n    minor_version   : 512\n    compatible_brands: isomiso2avc1mp41\n    encoder         : Lavf62.3.100\n  Stream #0:0(und): Video: av1 (AV01 / 0x31305641), yuv420p(tv, progressive), 1920x1080, q=2-31, 12000 kb/s, 30 fps, 1k tbn (default)\n    Metadata:\n      encoder         : Lavc62.11.100 libsvtav1\n      handler_name    : VideoHandler\n      vendor_id       : [0][0][0][0]\n    Side data:\n      cpb: bitrate max/min/avg: 0/0/12000000 buffer size: 12000000 vbv_delay: N/A\nframe=    0 fps=0.0 q=0.0 size=       0KiB time=N/A bitrate=N/A speed=N/A elapsed=0:00:01.03    \nframe=    0 fps=0.0 q=0.0 size=       0KiB time=N/A bitrate=N/A speed=N/A elapsed=0:00:01.57    \nframe=    0 fps=0.0 q=0.0 size=       0KiB time=N/A bitrate=N/A speed=N/A elapsed=0:00:02.10    \nframe=    0 fps=0.0 q=0.0 size=       0KiB time=N/A bitrate=N/A speed=N/A elapsed=0:00:02.65    \nframe=    1 fps=0.3 q=27.0 size=       1KiB time=00:00:00.00 bitrate=N/A speed=   0x elapsed=0:00:03.17    \nframe=    1 fps=0.3 q=27.0 size=       1KiB time=00:00:00.00 bitrate=N/A speed=   0x elapsed=0:00:03.70    \nframe=    2 fps=0.5 q=34.0 size=       1KiB time=00:00:00.03 bitrate= 171.1kbits/s speed=0.00787x elapsed=0:00:04.23    \nframe=    5 fps=1.1 q=33.0 size=       1KiB time=00:00:00.13 bitrate=  42.8kbits/s speed=0.0281x elapsed=0:00:04.73    \nframe=    9 fps=1.7 q=32.0 size=       1KiB time=00:00:00.26 bitrate=  21.4kbits/s speed=0.0507x elapsed=0:00:05.26    \nframe=   13 fps=2.2 q=33.0 size=       1KiB time=00:00:00.40 bitrate=  14.3kbits/s speed=0.069x elapsed=0:00:05.79    \nframe=   18 fps=2.8 q=35.0 size=       1KiB time=00:00:00.56 bitrate=  10.1kbits/s speed=0.0897x elapsed=0:00:06.31    \nframe=   21 fps=3.1 q=34.0 size=       1KiB time=00:00:00.66 bitrate=   8.6kbits/s speed=0.0975x elapsed=0:00:06.83    \nframe=   24 fps=3.3 q=35.0 size=       1KiB time=00:00:00.73 bitrate=   7.8kbits/s speed=0.0994x elapsed=0:00:07.37    \nframe=   28 fps=3.5 q=38.0 size=       1KiB time=00:00:00.90 bitrate=   6.3kbits/s speed=0.114x elapsed=0:00:07.92    \nframe=   34 fps=4.0 q=38.0 size=       1KiB time=00:00:01.10 bitrate=   5.2kbits/s speed=0.13x elapsed=0:00:08.44    \nframe=   38 fps=4.2 q=38.0 size=       1KiB time=00:00:01.23 bitrate=   4.6kbits/s speed=0.138x elapsed=0:00:08.96    \nframe=   41 fps=4.3 q=32.0 size=       1KiB time=00:00:01.33 bitrate=   4.3kbits/s speed=0.141x elapsed=0:00:09.47    \nframe=   45 fps=4.5 q=35.0 size=       1KiB time=00:00:01.46 bitrate=   3.9kbits/s speed=0.146x elapsed=0:00:10.01    \nframe=   51 fps=4.8 q=39.0 size=       1KiB time=00:00:01.66 bitrate=   3.4kbits/s speed=0.158x elapsed=0:00:10.53    \nframe=   57 fps=5.2 q=35.0 size=       1KiB time=00:00:01.86 bitrate=   3.1kbits/s speed=0.169x elapsed=0:00:11.05    \nframe=   59 fps=5.1 q=39.0 size=       1KiB time=00:00:01.93 bitrate=   3.0kbits/s speed=0.167x elapsed=0:00:11.58    \nframe=   65 fps=5.4 q=32.0 size=       1KiB time=00:00:02.13 bitrate=   2.7kbits/s speed=0.176x elapsed=0:00:12.14    \nframe=   69 fps=5.4 q=37.0 size=       1KiB time=00:00:02.26 bitrate=   2.5kbits/s speed=0.179x elapsed=0:00:12.66    \nframe=   73 fps=5.5 q=37.0 size=       1KiB time=00:00:02.40 bitrate=   2.4kbits/s speed=0.182x elapsed=0:00:13.17    \nframe=   77 fps=5.6 q=37.0 size=    5120KiB time=00:00:02.53 bitrate=16556.5kbits/s speed=0.185x elapsed=0:00:13.69    \nframe=   83 fps=5.8 q=38.0 size=    5120KiB time=00:00:02.73 bitrate=15345.0kbits/s speed=0.192x elapsed=0:00:14.23    \nframe=   89 fps=6.0 q=37.0 size=    5120KiB time=00:00:02.93 bitrate=14298.8kbits/s speed=0.199x elapsed=0:00:14.74    \nframe=   91 fps=6.0 q=38.0 size=    5120KiB time=00:00:03.00 bitrate=13981.0kbits/s speed=0.197x elapsed=0:00:15.25    \nframe=   97 fps=6.1 q=34.0 size=    5120KiB time=00:00:03.20 bitrate=13107.2kbits/s speed=0.203x elapsed=0:00:15.80    \nframe=  103 fps=6.3 q=38.0 size=    5120KiB time=00:00:03.40 bitrate=12336.2kbits/s speed=0.208x elapsed=0:00:16.31    \nframe=  105 fps=6.2 q=36.0 size=    5120KiB time=00:00:03.46 bitrate=12099.0kbits/s speed=0.206x elapsed=0:00:16.83    \nframe=  109 fps=6.3 q=37.0 size=    5120KiB time=00:00:03.60 bitrate=11650.8kbits/s speed=0.207x elapsed=0:00:17.36    \nframe=  117 fps=6.5 q=37.0 size=    5120KiB time=00:00:03.86 bitrate=10847.3kbits/s speed=0.216x elapsed=0:00:17.88    \nframe=  121 fps=6.6 q=37.0 size=    5120KiB time=00:00:04.00 bitrate=10485.8kbits/s speed=0.217x elapsed=0:00:18.39    \nframe=  125 fps=6.6 q=37.0 size=    5120KiB time=00:00:04.13 bitrate=10147.5kbits/s speed=0.218x elapsed=0:00:18.91    \nframe=  129 fps=6.6 q=34.0 size=    5120KiB time=00:00:04.26 bitrate=9830.4kbits/s speed=0.22x elapsed=0:00:19.42    \nframe=  135 fps=6.8 q=39.0 size=    5120KiB time=00:00:04.46 bitrate=9390.2kbits/s speed=0.224x elapsed=0:00:19.94    \nframe=  141 fps=6.9 q=39.0 size=    5120KiB time=00:00:04.66 bitrate=8987.8kbits/s speed=0.228x elapsed=0:00:20.47    \n[out#0/matroska @ 00000290a41c9400] video:8114KiB audio:0KiB subtitle:0KiB other streams:0KiB global headers:0KiB muxing overhead: 0.018390%\nframe=  150 fps=7.2 q=39.0 Lsize=    8116KiB time=00:00:04.96 bitrate=13385.9kbits/s speed=0.238x elapsed=0:00:20.83    \n",
  "seconds": 21.342518091201782,
  "probe_out": {}
}